<svg width="91" height="91" viewBox="0 0 91 91" fill="none" xmlns="http://www.w3.org/2000/svg">
<circle cx="45.5" cy="45.5" r="45.5" fill="url(#paint0_linear_149_5)" fill-opacity="0.99"/>
<path fill-rule="evenodd" clip-rule="evenodd" d="M38.6319 41.8121H38.6163C35.8776 41.5029 32.2013 41.816 30.498 41.8121C27.6577 41.9335 24.7003 44.4031 22.9618 48.0783C21.9421 50.2348 21.6725 51.8591 21.5045 54.1644C21.1646 56.4892 20.9888 58.7906 21.0006 61.0607C21.5592 64.5949 26.0325 63.546 26.4115 61.0607L26.9545 53.9374C27.0366 52.8611 27.1108 52.1331 27.5444 51.1076C27.7476 50.6262 27.9937 50.2153 28.2828 49.8748L28.5524 62.8885L28.4 63.9765H40.7025L40.5384 62.7632L40.7768 48.411C42.0269 47.9061 43.1052 47.6712 44.0546 47.6321C44.0077 47.7299 43.9569 47.8278 43.91 47.9256C42.8903 50.0822 42.6208 51.7065 42.4528 54.0117C42.1168 56.3327 41.9371 58.6341 41.9488 60.9041C42.5075 64.4384 46.9807 63.3894 47.3597 60.9041L47.9028 53.7808C47.9848 52.7045 48.059 51.9765 48.4927 50.9511C48.6958 50.4697 48.942 50.0587 49.2311 49.7182L49.5006 62.7319L49.3209 64H61.6742L61.4867 62.6106L61.6781 51.409V51.6282L61.7172 49.7221C62.0063 50.0626 62.2485 50.4736 62.4556 50.955C62.8931 51.9804 62.9635 52.7084 63.0455 53.7847L63.5885 60.908C64.112 64.3053 68.9995 64.3718 68.9995 60.908C69.0112 58.6341 68.8354 56.3366 68.4955 54.0157C68.3275 51.7104 68.0579 50.0861 67.0382 47.9295C65.2528 44.1526 62.9439 42.1526 59.4395 41.7417C57.2791 41.5656 53.6496 41.7652 51.4853 41.7025C50.9461 41.7769 50.4148 41.8865 49.8991 42.0431C48.5513 41.8552 46.7698 41.6243 44.9922 41.6164C42.3942 41.6086 39.8118 42.0548 38.6319 41.8121ZM55.4976 28C59.0176 28 61.8735 30.8611 61.8735 34.3875C61.8735 37.9139 59.0176 40.775 55.4976 40.775C51.9775 40.775 49.1217 37.9139 49.1217 34.3875C49.1217 30.8611 51.9775 28 55.4976 28ZM34.5024 28C38.0225 28 40.8783 30.8611 40.8783 34.3875C40.8783 37.9139 38.0225 40.775 34.5024 40.775C30.9824 40.775 28.1265 37.9139 28.1265 34.3875C28.1265 30.8611 30.9824 28 34.5024 28Z" fill="white"/>
<defs>
<linearGradient id="paint0_linear_149_5" x1="6.06667" y1="24.6458" x2="92.5432" y2="69.7125" gradientUnits="userSpaceOnUse">
<stop stop-color="#017CD7"/>
<stop offset="1" stop-color="#61B0EA" stop-opacity="0.83"/>
</linearGradient>
</defs>
</svg>
