<svg width="359" height="69" viewBox="0 0 359 69" fill="none" xmlns="http://www.w3.org/2000/svg">
<path d="M92.8723 53.6753C92.8723 53.6753 94.5701 51.9004 97.5797 51.9004C102.48 51.9004 104.448 54.91 109.194 54.91C114.249 54.91 116.294 50.5885 116.294 50.5885L114.017 45.6881C114.017 45.6881 112.512 47.7717 109.233 47.7717C107.342 47.7717 105.027 47.0386 104.294 47.0386V46.8842C110.892 44.8778 115.368 38.6655 115.368 31.0642C115.368 21.765 108.384 14.5881 99.5476 14.5881C90.7887 14.5881 83.6889 21.765 83.6889 31.0642C83.6889 39.2443 88.6665 45.8038 96.2292 47.2701V47.4244C93.9141 47.4244 91.1359 51.0515 91.1359 51.0515L92.8723 53.6753ZM91.5218 31.0642C91.5218 26.3181 93.9527 21.8808 99.5476 21.8808C105.181 21.8808 107.535 26.3181 107.535 31.0642C107.535 35.8102 105.335 40.2475 99.5476 40.2475C93.6054 40.2475 91.5218 35.8102 91.5218 31.0642ZM125.021 27.2056H118.192V38.2797C118.192 44.9164 121.51 47.5788 128.918 47.5788C136.327 47.5788 139.645 44.9164 139.645 38.2797V27.2056H132.816V36.6205C132.816 40.5176 131.774 42.0225 128.918 42.0225C126.063 42.0225 125.021 40.5176 125.021 36.6205V27.2056ZM163.925 38.0482C163.964 37.8166 163.964 37.3922 163.964 37.1221C163.964 30.1767 159.372 26.6268 153.353 26.6268C147.372 26.6268 142.472 31.3343 142.472 37.1221C142.472 42.8713 147.372 47.5788 153.353 47.5788C157.751 47.5788 161.379 46.1511 163.616 42.4083L158.678 39.9388C157.018 41.7138 156.054 42.1382 153.854 42.1382C152.118 42.1382 149.571 41.0964 149.571 38.0482H163.925ZM149.764 34.2668C149.88 32.4532 151.192 31.0642 153.546 31.0642C155.552 31.0642 156.98 32.1831 157.288 34.2668H149.764ZM175.602 26.6268C170.393 26.6268 166.959 28.942 166.959 32.9934C166.959 35.9645 168.966 37.3536 170.972 38.3954C173.21 39.553 175.371 39.6687 175.371 41.0964C175.371 42.4083 174.213 42.5241 173.249 42.5241C171.049 42.5241 168.348 40.2475 168.348 40.2475L165.57 44.9164C165.57 44.9164 168.426 47.5788 173.21 47.5788C177.262 47.5788 182.586 46.6527 182.586 40.8263C182.586 36.7748 179.191 35.3086 176.567 34.4983C174.869 33.9581 173.48 33.6494 173.48 32.6076C173.48 31.6815 174.098 31.4114 175.602 31.4114C177.686 31.4114 180.001 32.6462 180.001 32.6462L182.239 28.1702C182.239 28.1702 179.422 26.6268 175.602 26.6268ZM186.808 27.2056H183.952V32.4147H186.808V40.016C186.808 43.5273 188.12 47.5788 193.56 47.5788C196.377 47.5788 198.576 46.344 198.576 46.344L196.878 40.8263C196.878 40.8263 196.068 41.4437 195.181 41.4437C194.1 41.4437 193.637 40.5562 193.637 38.7041V32.4147H197.805V27.2056H193.637V19.8358H186.808V27.2056Z" fill="url(#paint0_linear_50_4)"/>
<path d="M210.327 47L200.873 15.1669H204.134L212.102 43.18L221.42 15.1669H223.697L233.054 43.18L240.983 15.1669H244.243L234.79 47H231.491L222.578 20.9355L213.645 47H210.327ZM254.925 47.6174C252.867 47.6174 251.009 47.1736 249.349 46.2862C247.703 45.3987 246.398 44.164 245.433 42.582C244.468 40.9999 243.986 39.18 243.986 37.1221C243.986 35.0513 244.468 33.2314 245.433 31.6622C246.398 30.0802 247.703 28.8455 249.349 27.958C250.996 27.0706 252.854 26.6268 254.925 26.6268C256.983 26.6268 258.835 27.0706 260.481 27.958C262.14 28.8455 263.452 30.0802 264.417 31.6622C265.382 33.2314 265.864 35.0513 265.864 37.1221C265.864 39.18 265.382 40.9999 264.417 42.582C263.452 44.164 262.14 45.3987 260.481 46.2862C258.835 47.1736 256.983 47.6174 254.925 47.6174ZM254.925 45.1093C256.468 45.1093 257.845 44.7685 259.054 44.0868C260.263 43.4051 261.214 42.4662 261.909 41.27C262.604 40.061 262.951 38.6784 262.951 37.1221C262.951 35.5658 262.604 34.1896 261.909 32.9934C261.214 31.7844 260.263 30.8391 259.054 30.1574C257.845 29.4757 256.468 29.1349 254.925 29.1349C253.382 29.1349 252.005 29.4757 250.796 30.1574C249.587 30.8391 248.636 31.7844 247.941 32.9934C247.246 34.1896 246.899 35.5658 246.899 37.1221C246.899 38.6655 247.246 40.0417 247.941 41.2508C248.636 42.4598 249.587 43.4051 250.796 44.0868C252.005 44.7685 253.382 45.1093 254.925 45.1093ZM270.076 47V27.2442H272.892V30.1574C273.523 28.9998 274.333 28.1252 275.323 27.5336C276.326 26.9291 277.484 26.6268 278.796 26.6268C279.375 26.6268 279.96 26.6911 280.552 26.8198C281.156 26.9484 281.677 27.1156 282.114 27.3214L280.957 29.6944C280.571 29.5014 280.127 29.3535 279.625 29.2506C279.137 29.1477 278.667 29.0963 278.217 29.0963C277.304 29.0963 276.442 29.3278 275.632 29.7908C274.822 30.2539 274.159 30.8584 273.645 31.6044C273.143 32.3375 272.892 33.1221 272.892 33.9581V47H270.076ZM284.788 47V13.8164H287.605V35.3279L295.495 27.2442H299.18L290.17 36.5433L299.643 47H296.035L287.605 37.6237V47H284.788ZM308.664 47.6174C307.03 47.6174 305.59 47.2251 304.342 46.4405C303.095 45.6431 302.124 44.5177 301.429 43.0643L302.934 41.4437C303.551 42.7041 304.355 43.6881 305.345 44.3955C306.336 45.09 307.436 45.4373 308.645 45.4373C309.455 45.4373 310.194 45.2701 310.863 44.9357C311.545 44.6013 312.085 44.1254 312.484 43.508C312.895 42.8778 313.101 42.1318 313.101 41.27C313.101 40.4855 312.908 39.8681 312.522 39.4179C312.149 38.9678 311.596 38.5819 310.863 38.2604C310.143 37.926 309.243 37.553 308.162 37.1414C307.326 36.807 306.516 36.4276 305.731 36.0031C304.947 35.5787 304.297 35.0449 303.783 34.4018C303.281 33.7459 303.03 32.9163 303.03 31.913C303.03 30.897 303.3 29.9966 303.841 29.2121C304.381 28.4146 305.127 27.7908 306.079 27.3407C307.03 26.8776 308.111 26.6461 309.32 26.6461C310.426 26.6461 311.461 26.8841 312.426 27.36C313.403 27.8358 314.278 28.5111 315.05 29.3857L313.757 31.0256C312.574 29.4693 311.101 28.6912 309.339 28.6912C308.259 28.6912 307.378 28.9741 306.696 29.54C306.027 30.106 305.693 30.8455 305.693 31.7587C305.693 32.4147 305.905 32.9613 306.329 33.3986C306.754 33.8359 307.307 34.2089 307.989 34.5176C308.683 34.8263 309.429 35.1349 310.227 35.4436C311.384 35.8809 312.387 36.3182 313.236 36.7555C314.098 37.1928 314.767 37.7523 315.243 38.434C315.719 39.1028 315.956 40.016 315.956 41.1736C315.956 42.4984 315.648 43.6431 315.03 44.6077C314.413 45.5723 313.551 46.3183 312.445 46.8457C311.352 47.3601 310.091 47.6174 308.664 47.6174Z" fill="#296591"/>
<mask id="mask0_50_4" style="mask-type:alpha" maskUnits="userSpaceOnUse" x="0" y="0" width="69" height="69">
<mask id="mask1_50_4" style="mask-type:luminance" maskUnits="userSpaceOnUse" x="0" y="0" width="69" height="69">
<path d="M15.4511 27.8684V12.6577C15.4511 11.1999 16.2113 9.85357 17.4436 9.12898L23.6124 5.50195L32.2875 0.518015C33.4938 -0.175039 34.9648 -0.172513 36.1689 0.524686L43.5007 4.76995L50.982 8.9936C52.2344 9.70062 53.0187 11.0452 53.0343 12.5122L53.2002 28.031L66.3883 35.4929C67.6525 36.2081 68.4376 37.5725 68.4376 39.0543V55.75C68.4376 57.203 67.6823 58.5457 66.4563 59.272L51.9324 67.8767C50.7317 68.588 49.2559 68.6034 48.0414 67.9171L34.3092 60.1575L20.6208 67.9317C19.4257 68.6104 17.9743 68.6094 16.78 67.9289L2.03903 59.53C0.780596 58.8129 0 57.4517 0 55.9743V39.1193C0 37.6463 0.776078 36.2884 2.02876 35.5696L15.4511 27.8684Z" fill="white"/>
</mask>
<g mask="url(#mask1_50_4)">
<path d="M15.4512 27.8683L33.1579 60.3837L51.7413 49.7212V27.8683H15.4512ZM2.03915 59.5299L-15.5736 92.0989L-15.5735 92.099L2.03915 59.5299ZM34.3094 60.1573L51.8106 27.5249L34.265 17.6105L16.7401 27.5635L34.3094 60.1573ZM48.0415 67.917L65.5428 35.2846L65.5427 35.2845L48.0415 67.917ZM53.2003 28.0309L16.9124 28.4396L17.1446 50.1652L35.6819 60.6536L53.2003 28.0309ZM53.0344 12.5121L16.7465 12.9207V12.9208L53.0344 12.5121ZM43.5008 4.76982L25.6706 37.2141L25.8408 37.3126L26.0118 37.4091L43.5008 4.76982ZM23.6125 5.50182L5.88819 -27.0035L5.73096 -26.9132L5.57462 -26.8212L23.6125 5.50182ZM-20.839 12.6576V27.8683H51.7413V12.6576H-20.839ZM-2.25558 -4.64707L-15.6779 3.05416L19.7356 68.0849L33.1579 60.3837L-2.25558 -4.64707ZM-36.29 39.1192V55.9742H36.2903V39.1192H-36.29ZM-15.5735 92.099L-0.832466 100.498L34.3928 35.3596L19.6517 26.9606L-15.5735 92.099ZM38.1903 100.525L51.8786 92.7512L16.7401 27.5635L3.05169 35.3376L38.1903 100.525ZM16.8082 92.7898L30.5402 100.549L65.5427 35.2845L51.8106 27.5249L16.8082 92.7898ZM70.0735 100.139L84.5974 91.5341L48.3155 27.0097L33.7916 35.6144L70.0735 100.139ZM104.728 55.7498V39.0542H32.1476V55.7498H104.728ZM83.9069 2.87009L70.7187 -4.5917L35.6819 60.6536L48.87 68.1154L83.9069 2.87009ZM89.4883 27.6224L89.3224 12.1036L16.7465 12.9208L16.9124 28.4396L89.4883 27.6224ZM68.4711 -23.6459L60.9897 -27.8696L26.0118 37.4091L33.4933 41.6328L68.4711 -23.6459ZM61.3309 -27.6744L53.9991 -31.9197L18.3389 32.9688L25.6706 37.2141L61.3309 -27.6744ZM14.5633 -31.9874L5.88819 -27.0035L41.3368 38.0071L50.0119 33.0232L14.5633 -31.9874ZM5.57462 -26.8212L-0.594101 -23.1942L35.4816 41.4519L41.6504 37.8249L5.57462 -26.8212ZM89.3224 12.1036C89.1631 -2.80126 81.1951 -16.4625 68.4711 -23.6459L33.4933 41.6328C23.2741 35.8636 16.8745 24.8914 16.7465 12.9207L89.3224 12.1036ZM104.728 39.0542C104.728 23.9999 96.751 10.1372 83.9069 2.87009L48.87 68.1154C38.5542 62.2788 32.1476 51.145 32.1476 39.0542H104.728ZM84.5974 91.5341C97.0539 84.1543 104.728 70.513 104.728 55.7498H32.1476C32.1476 43.8929 38.311 32.9369 48.3154 27.0098L84.5974 91.5341ZM30.5402 100.549C42.8802 107.522 57.8736 107.367 70.0735 100.139L33.7916 35.6143C43.59 29.8094 55.6319 29.6842 65.5428 35.2846L30.5402 100.549ZM-0.832466 100.498C11.3009 107.411 26.0477 107.422 38.1903 100.525L3.05169 35.3376C12.804 29.799 24.648 29.8073 34.3928 35.3596L-0.832466 100.498ZM-36.29 55.9742C-36.29 70.9846 -28.3591 84.814 -15.5736 92.0989L19.6518 26.9607C29.9206 32.8116 36.2903 43.9187 36.2903 55.9742H-36.29ZM-15.6779 3.05416C-28.4051 10.3566 -36.29 24.1529 -36.29 39.1192H36.2903C36.2903 51.1395 29.9575 62.22 19.7357 68.0849L-15.6779 3.05416ZM53.9991 -31.9197C41.7657 -39.0032 26.8198 -39.0289 14.5633 -31.9874L50.0119 33.0232C40.1681 38.6786 28.1642 38.6579 18.3389 32.9689L53.9991 -31.9197ZM51.7413 12.6576C51.7413 24.5533 45.5379 35.5391 35.4816 41.4519L-0.594101 -23.1942C-13.1151 -15.8322 -20.839 -2.15386 -20.839 12.6576H51.7413Z" fill="white"/>
</g>
</mask>
<g mask="url(#mask0_50_4)">
<path d="M24 23.823V15.6705L34 9.5L44.5 15.6705L45 25C46.2839 24.0018 45.5 21.5 45.5 21.5L45 25C46.2839 23.5018 42.131 23.2674 33.5909 18.7636C30.5273 19.8536 27.3828 21.703 24 23.823Z" fill="#C6E7FF"/>
<path d="M60 42L53 38C53 42.4146 53 47 52 49C48.5 52 46.5 53 43 55.0976L49.697 59L60 53V42Z" fill="#C6E7FF"/>
<path d="M25.5 55L18.5 59L8.20771 53.12L8 41.7741L15.9618 38L16.5556 49.0882L25.5 55Z" fill="#C6E7FF"/>
<path d="M19.8652 13.5025C19.8652 13.1426 20.0587 12.8104 20.3717 12.6328L49.4654 -3.87526C49.7715 -4.04893 50.1463 -4.04893 50.4524 -3.87526L79.546 12.6328C79.8591 12.8104 80.0525 13.1426 80.0525 13.5025V46.1496C80.0525 46.5096 79.8591 46.8417 79.546 47.0194L50.4524 63.5274C50.1463 63.7011 49.7715 63.7011 49.4654 63.5274L20.3717 47.0194C20.0587 46.8417 19.8652 46.5096 19.8652 46.1496V13.5025Z" stroke="url(#paint1_linear_50_4)" stroke-width="8.9127"/>
<path d="M4.24097 39.4876L34.1509 22.4258L64.0608 39.4876V73.3134L34.1509 90.3754L4.24097 73.3134V39.4876Z" stroke="url(#paint2_linear_50_4)" stroke-width="8.9127" stroke-linejoin="round"/>
<path d="M-11.2324 13.4927C-11.2324 13.1335 -11.0397 12.8019 -10.7276 12.624L18.2045 -3.86716C18.5115 -4.04212 18.888 -4.04211 19.1949 -3.86715L48.1271 12.624C48.4392 12.8019 48.6319 13.1335 48.6319 13.4927V46.2156C48.6319 46.5755 48.4386 46.9075 48.1257 47.0852L19.1984 63.5122C18.8917 63.6864 18.5159 63.6861 18.2094 63.5114L-10.7276 47.0175C-11.0397 46.8396 -11.2324 46.5079 -11.2324 46.1487V13.4927Z" stroke="url(#paint3_linear_50_4)" stroke-width="8.9127"/>
</g>
<defs>
<linearGradient id="paint0_linear_50_4" x1="36.2763" y1="31.1384" x2="277.818" y2="31.1384" gradientUnits="userSpaceOnUse">
<stop stop-color="#017DD7"/>
<stop offset="1" stop-color="#017DD7" stop-opacity="0.43"/>
</linearGradient>
<linearGradient id="paint1_linear_50_4" x1="15.3833" y1="11.8558" x2="90.6387" y2="51.7618" gradientUnits="userSpaceOnUse">
<stop stop-color="#017DD7"/>
<stop offset="1" stop-color="#61B0EA" stop-opacity="0.7"/>
</linearGradient>
<linearGradient id="paint2_linear_50_4" x1="-0.240833" y1="38.4302" x2="74.789" y2="78.005" gradientUnits="userSpaceOnUse">
<stop stop-color="#017DD7"/>
<stop offset="1" stop-color="#61B0EA" stop-opacity="0.7"/>
</linearGradient>
<linearGradient id="paint3_linear_50_4" x1="-11.1036" y1="11.853" x2="57.6389" y2="43.2786" gradientUnits="userSpaceOnUse">
<stop stop-color="#017DD7"/>
<stop offset="1" stop-color="#61B0EA" stop-opacity="0.7"/>
</linearGradient>
</defs>
</svg>
