<svg width="91" height="91" viewBox="0 0 91 91" fill="none" xmlns="http://www.w3.org/2000/svg">
<circle cx="45.5" cy="45.5" r="45.5" fill="url(#paint0_linear_149_9)" fill-opacity="0.99"/>
<path d="M46.7675 31.1925C45.2458 31.1925 43.9167 31.5042 42.78 32.1275C41.6617 32.7325 40.7175 33.4475 39.9475 34.2725C39.1958 35.0792 38.6183 35.8217 38.215 36.5C37.83 37.16 37.6192 37.5267 37.5825 37.6L33.43 35.785C33.4667 35.62 33.6408 35.2258 33.9525 34.6025C34.2642 33.9608 34.75 33.2183 35.41 32.375C36.07 31.5317 36.9133 30.7067 37.94 29.9C38.9667 29.075 40.2042 28.3967 41.6525 27.865C43.1192 27.315 44.8242 27.04 46.7675 27.04C48.7475 27.04 50.4617 27.315 51.91 27.865C53.3583 28.415 54.55 29.185 55.485 30.175C56.42 31.165 57.1167 32.3383 57.575 33.695C58.0333 35.0517 58.2625 36.5275 58.2625 38.1225C58.2625 39.6625 57.8958 41.2392 57.1625 42.8525C56.4292 44.4658 55.4758 46.0517 54.3025 47.61C53.1292 49.15 51.8642 50.6075 50.5075 51.9825C49.1692 53.3392 47.8675 54.5675 46.6025 55.6675C45.3558 56.7675 44.2742 57.675 43.3575 58.39C42.4592 59.0867 41.8725 59.545 41.5975 59.765H57.96V64H34.255V60.1225C34.8233 59.6825 35.6758 59.0133 36.8125 58.115C37.9675 57.1983 39.2692 56.1258 40.7175 54.8975C42.1658 53.6692 43.6325 52.34 45.1175 50.91C46.6025 49.48 47.9775 48.0225 49.2425 46.5375C50.5075 45.0342 51.525 43.5675 52.295 42.1375C53.0833 40.6892 53.4775 39.3325 53.4775 38.0675C53.4775 35.5375 52.8908 33.7592 51.7175 32.7325C50.5625 31.7058 48.9125 31.1925 46.7675 31.1925Z" fill="white"/>
<defs>
<linearGradient id="paint0_linear_149_9" x1="6.06667" y1="24.6458" x2="92.5432" y2="69.7125" gradientUnits="userSpaceOnUse">
<stop stop-color="#017CD7"/>
<stop offset="1" stop-color="#61B0EA" stop-opacity="0.83"/>
</linearGradient>
</defs>
</svg>
