<svg width="91" height="91" viewBox="0 0 91 91" fill="none" xmlns="http://www.w3.org/2000/svg">
<circle cx="45.5" cy="45.5" r="45.5" fill="url(#paint0_linear_149_10)" fill-opacity="0.99"/>
<path d="M35.5575 33.475C35.6675 33.0533 35.9608 32.485 36.4375 31.77C36.9142 31.055 37.5925 30.34 38.4725 29.625C39.3708 28.8917 40.48 28.2775 41.8 27.7825C43.1383 27.2875 44.7242 27.04 46.5575 27.04C48.8675 27.04 50.8383 27.4708 52.47 28.3325C54.12 29.1758 55.3758 30.3308 56.2375 31.7975C57.1175 33.2642 57.5575 34.9142 57.5575 36.7475C57.5575 38.1592 57.2825 39.4333 56.7325 40.57C56.1825 41.7067 55.4675 42.6417 54.5875 43.375C53.7258 44.09 52.8092 44.53 51.8375 44.695C52.8642 44.7867 53.9092 45.19 54.9725 45.905C56.0358 46.62 56.925 47.6008 57.64 48.8475C58.355 50.0942 58.7125 51.5883 58.7125 53.33C58.7125 55.475 58.19 57.4092 57.145 59.1325C56.1183 60.8375 54.6792 62.185 52.8275 63.175C50.9942 64.165 48.8675 64.66 46.4475 64.66C44.0642 64.66 42.0292 64.2567 40.3425 63.45C38.6742 62.625 37.3358 61.6258 36.3275 60.4525C35.3192 59.2792 34.6317 58.1425 34.265 57.0425L38.5825 54.815C38.8575 55.6217 39.325 56.465 39.985 57.345C40.6633 58.2067 41.5342 58.94 42.5975 59.545C43.6792 60.15 44.9442 60.4525 46.3925 60.4525C48.0058 60.4525 49.3717 60.1317 50.49 59.49C51.6267 58.83 52.4883 57.9592 53.075 56.8775C53.6617 55.7775 53.955 54.5583 53.955 53.22C53.955 51.735 53.5975 50.5158 52.8825 49.5625C52.1858 48.6092 51.26 47.9125 50.105 47.4725C48.95 47.0142 47.7125 46.785 46.3925 46.785H45.6775V43.155H46.6125C47.7858 43.155 48.8675 42.9167 49.8575 42.44C50.8658 41.9633 51.6725 41.2667 52.2775 40.35C52.9008 39.4333 53.2125 38.3425 53.2125 37.0775C53.2125 35.3908 52.6533 33.9608 51.535 32.7875C50.4167 31.6142 48.73 31.0275 46.475 31.0275C45.2283 31.0275 44.165 31.2108 43.285 31.5775C42.4233 31.9442 41.7267 32.3933 41.195 32.925C40.6633 33.4383 40.26 33.9242 39.985 34.3825C39.7283 34.8408 39.5817 35.1708 39.545 35.3725L35.5575 33.475Z" fill="white"/>
<defs>
<linearGradient id="paint0_linear_149_10" x1="6.06667" y1="24.6458" x2="92.5432" y2="69.7125" gradientUnits="userSpaceOnUse">
<stop stop-color="#017CD7"/>
<stop offset="1" stop-color="#61B0EA" stop-opacity="0.83"/>
</linearGradient>
</defs>
</svg>
