<svg width="91" height="91" viewBox="0 0 91 91" fill="none" xmlns="http://www.w3.org/2000/svg">
<circle cx="45.5" cy="45.5" r="45.5" fill="url(#paint0_linear_149_6)" fill-opacity="0.99"/>
<path fill-rule="evenodd" clip-rule="evenodd" d="M65.7026 24.9294L61.2341 34.5569C61.1948 34.6401 61.1385 34.7143 61.0688 34.7748L50.4905 43.9663L57.3721 51.3714C57.9948 51.1174 58.6404 50.9594 59.2837 50.8989C60.8164 50.7544 62.3366 51.1628 63.5151 52.1425C63.5729 52.1844 63.6209 52.2383 63.6558 52.3003C63.6906 52.3624 63.7115 52.4312 63.7171 52.5021C63.7226 52.5729 63.7126 52.6441 63.6878 52.7107C63.6629 52.7774 63.6239 52.8379 63.5732 52.8881L60.4639 55.9729L66.2425 62.4386C66.9721 62.3003 67.7558 62.5112 68.3206 63.0714C69.2265 63.9702 69.2265 65.4274 68.3206 66.326C67.4147 67.2247 65.9457 67.2247 65.0399 66.326C64.923 66.2102 64.8189 66.0823 64.7293 65.9446L64.7041 65.9464C64.3857 65.9669 64.0731 65.994 63.7372 66.023C62.1943 66.1573 60.2195 66.3285 59.0101 65.9157C58.2113 65.6433 57.562 65.211 57.0548 64.6287C56.5568 64.0565 56.2088 63.3535 56.0029 62.5288C55.8763 62.0211 56.1886 61.507 56.7004 61.3812C57.2123 61.2555 57.7305 61.5655 57.8571 62.0731C57.9907 62.6083 58.2025 63.0485 58.497 63.3867C58.7825 63.7144 59.1597 63.962 59.6334 64.1234L63.5683 64.1364L63.5985 63.2611L57.8951 58.5213L54.9807 61.4125L54.9497 61.4394C54.8494 61.5235 54.7195 61.5647 54.5887 61.5539C54.4578 61.5431 54.3366 61.4812 54.2517 61.3818C53.2477 60.209 52.8287 58.6893 52.9753 57.1571C53.0374 56.5066 53.2018 55.8539 53.4665 55.2249L45.4999 48.3028L37.5335 55.2249C37.7981 55.8539 37.9626 56.5066 38.0247 57.1571C38.1713 58.6893 37.7522 60.209 36.7483 61.3818C36.6634 61.4812 36.5422 61.5431 36.4113 61.5539C36.2805 61.5647 36.1506 61.5235 36.0503 61.4394L36.02 61.4118L33.1056 58.5209L27.4015 63.2611L27.4317 64.1364L31.3666 64.1234C31.8403 63.962 32.2175 63.7144 32.503 63.3867C32.7975 63.0485 33.0093 62.6083 33.1429 62.0731C33.2695 61.5655 33.7877 61.2555 34.2996 61.3812C34.8114 61.507 35.1236 62.0211 34.997 62.5288C34.7912 63.3535 34.4432 64.0565 33.9452 64.6287C33.438 65.211 32.7887 65.6433 31.9898 65.9157C30.7805 66.3285 28.8057 66.1573 27.2628 66.023C26.9269 65.994 26.6143 65.9669 26.2959 65.9464L26.2707 65.9446C26.181 66.0823 26.0769 66.2101 25.9601 66.326C25.0543 67.2247 23.5853 67.2247 22.6794 66.326C21.7735 65.4274 21.7735 63.9702 22.6794 63.0714C23.2441 62.5112 24.0279 62.3003 24.7575 62.4386L30.5363 55.9726L27.4268 52.8881C27.3761 52.8379 27.3371 52.7774 27.3122 52.7107C27.2874 52.6441 27.2774 52.5729 27.2829 52.5021C27.2885 52.4312 27.3094 52.3624 27.3442 52.3003C27.3791 52.2383 27.4271 52.1844 27.4849 52.1425C28.6634 51.1628 30.1835 50.7544 31.7163 50.8989C32.3596 50.9594 33.0051 51.1173 33.6279 51.3713L40.5092 43.9662L29.9313 34.7748C29.8615 34.7143 29.8052 34.6401 29.7661 34.5568L25.2974 24.9294C25.24 24.8059 25.2228 24.6676 25.2482 24.5339C25.2736 24.4002 25.3404 24.2776 25.4392 24.1832C25.538 24.0888 25.664 24.0273 25.7996 24.0072C25.9353 23.9871 26.0739 24.0094 26.1962 24.0709L35.9564 28.4051C36.0385 28.4414 36.1122 28.4939 36.173 28.5595L45.4997 38.5958L54.8265 28.559C54.8877 28.4939 54.9616 28.4415 55.0436 28.4051L64.8038 24.0709C64.9261 24.0094 65.0647 23.9871 65.2004 24.0072C65.336 24.0273 65.462 24.0888 65.5608 24.1832C65.6596 24.2776 65.7264 24.4002 65.7518 24.5339C65.7772 24.6676 65.76 24.8059 65.7026 24.9294ZM48.4554 45.7347L48.303 45.8671L47.7085 46.3838L53.8979 52.3463L54.5879 51.6423L48.4554 45.7347ZM42.7245 41.5823L43.2127 41.0569L43.3956 40.8601L32.9079 30.7569L32.2179 31.4608L42.7245 41.5823ZM59.6252 30.6477L37.323 52.1334L36.633 51.4294L58.9351 29.9437L59.6252 30.6477Z" fill="white"/>
<defs>
<linearGradient id="paint0_linear_149_6" x1="6.06667" y1="24.6458" x2="92.5432" y2="69.7125" gradientUnits="userSpaceOnUse">
<stop stop-color="#017CD7"/>
<stop offset="1" stop-color="#61B0EA" stop-opacity="0.83"/>
</linearGradient>
</defs>
</svg>
