<svg width="91" height="91" viewBox="0 0 91 91" fill="none" xmlns="http://www.w3.org/2000/svg">
<circle cx="45.5" cy="45.5" r="45.5" fill="url(#paint0_linear_149_7)" fill-opacity="0.99"/>
<path fill-rule="evenodd" clip-rule="evenodd" d="M40.873 46.242C42.8618 50.3142 48.9895 50.4459 51.1276 46.2699C50.5134 45.6322 49.9606 44.9364 49.4768 44.1919C48.4784 45.0078 47.2198 45.4236 45.9394 45.3606C45.2004 45.3877 44.464 45.2568 43.7781 44.9765C43.0922 44.6961 42.472 44.2726 41.9578 43.7333C41.6939 44.6109 41.3298 45.4542 40.873 46.246V46.242ZM26.5974 67.5285L39.3165 55.4713C42.4334 58.6302 45.5149 61.7612 48.6632 64.916L56.9959 56.3528L53.1204 52.4321L61.2487 52.3563L64 52.3324V63.4682L60.2935 59.6871C57.7505 62.3036 55.2193 64.928 52.6645 67.5205C49.4415 70.791 47.9086 70.8429 44.6895 67.5763L39.2536 62.1361L33.9003 67.5285H26.5974ZM51.7762 45.6517C54.9206 47.9052 59.4681 47.1434 62.4239 48.9263L53.2776 49.01C52.3231 48.9687 51.3892 49.2998 50.6678 49.9353C50.3268 50.2319 50.0505 50.5973 49.8563 51.0082C49.6621 51.4192 49.5544 51.8666 49.54 52.3221C49.5256 52.7776 49.6048 53.2311 49.7725 53.6538C49.9403 54.0765 50.193 54.4592 50.5145 54.7773L52.0867 56.3727L49.1899 59.3322H48.0501C46.1058 57.3672 44.1536 55.3889 42.1936 53.3973L41.8556 53.0583C41.1626 52.4137 40.2566 52.0561 39.3165 52.0561C38.3764 52.0561 37.4704 52.4137 36.7774 53.0583L30.1545 59.3322H26C26.3105 57.5972 26.338 55.5551 26.6289 53.7044C27.8827 45.7275 35.3349 49.0379 40.0633 45.6836C40.5543 44.8226 40.9498 43.909 41.2424 42.9595C40.624 42.1852 40.0593 41.3683 39.5523 40.5146L37.8229 37.7506C37.2786 37.0145 36.9429 36.1415 36.8521 35.2259C36.8318 34.9134 36.8843 34.6005 37.0054 34.3125C37.1342 34.0298 37.3384 33.7894 37.595 33.6185C37.7231 33.5295 37.8617 33.4571 38.0077 33.4031C37.8871 31.7522 37.8596 30.0956 37.9251 28.4415C37.965 28.0612 38.036 27.685 38.1374 27.3167C38.6138 25.7514 39.6424 24.4194 41.0263 23.5755C41.7783 23.0942 42.5952 22.7261 43.4514 22.4827C43.9938 22.3272 43.3728 21.0828 43.9348 21.0269C46.6469 20.7437 50.656 22.742 52.5544 24.8199C53.5869 25.9955 54.1795 27.5018 54.2288 29.0756L54.1227 33.5826C54.3455 33.6397 54.5482 33.7589 54.7079 33.9266C54.8677 34.0943 54.9781 34.3039 55.0267 34.5319C55.1643 35.0783 55.0267 35.8481 54.555 36.901C54.5483 36.9208 54.539 36.9395 54.5275 36.9569L52.5623 40.2154C51.9026 41.4262 51.0987 42.5501 50.1686 43.5618C50.6194 44.2881 51.1324 44.9728 51.7015 45.6078C51.7178 45.6204 51.7324 45.6352 51.7447 45.6517H51.7762ZM38.2946 34.5957C38.189 34.7749 38.1281 34.9776 38.1172 35.1861C38.1062 35.3946 38.1455 35.6026 38.2317 35.7922C38.4675 36.5261 39.2261 37.6429 39.6467 38.3209L40.6607 39.9522C41.2903 41.0732 42.0635 42.1045 42.9601 43.0193C44.9528 44.6147 47.1303 44.519 49.1427 42.9116C50.0668 41.9297 50.8597 40.8287 51.501 39.6371L53.427 36.4144C53.7847 35.5848 53.9183 35.0264 53.82 34.7034C53.7218 34.3803 53.0339 34.3843 52.6959 34.4042C52.6463 34.4103 52.5962 34.4103 52.5465 34.4042C52.3692 34.4107 52.1917 34.4013 52.0159 34.3763L52.6763 31.4089C47.7789 32.2066 44.6816 28.5532 39.5052 30.7229L39.8786 34.2168C39.3244 34.2447 38.6994 34.0572 38.271 34.5837L38.2946 34.5957Z" fill="white"/>
<defs>
<linearGradient id="paint0_linear_149_7" x1="6.06667" y1="24.6458" x2="92.5432" y2="69.7125" gradientUnits="userSpaceOnUse">
<stop stop-color="#017CD7"/>
<stop offset="1" stop-color="#61B0EA" stop-opacity="0.83"/>
</linearGradient>
</defs>
</svg>
